<svg width="24" height="24" viewBox="0 0 24 24" fill="none" xmlns="http://www.w3.org/2000/svg">
<path d="M2 1H20V19H2V1Z" fill="#55AE7B"/>
<path d="M12 18C12 15.2386 14.2386 13 17 13C19.7614 13 22 15.2386 22 18C22 20.7614 19.7614 23 17 23C14.2386 23 12 20.7614 12 18Z" fill="#55AE7B"/>
<path fill-rule="evenodd" clip-rule="evenodd" d="M17.2811 13.8916C17.4284 13.8783 17.5769 13.9059 17.7091 13.9722C17.8412 14.0386 17.9517 14.1412 18.0292 14.2671C18.1066 14.3931 18.1476 14.5383 18.1475 14.6862V15.3413C18.7782 15.5135 19.3392 15.8874 19.7431 16.4098C20.2079 17.0113 20.4304 17.7666 20.3671 18.525C20.3037 19.2836 19.9586 19.9912 19.4003 20.5066C18.8419 21.0218 18.1107 21.3072 17.3521 21.3068C17.141 21.3067 16.9386 21.2231 16.7896 21.0735C16.6407 20.9239 16.5577 20.7206 16.5577 20.5094C16.5577 20.2985 16.6408 20.0958 16.7896 19.9463C16.9386 19.7967 17.141 19.7122 17.3521 19.7121C17.7006 19.7128 18.0389 19.586 18.3009 19.3546C18.563 19.1233 18.7322 18.803 18.7763 18.4549C18.8202 18.107 18.7364 17.755 18.5405 17.4651C18.4353 17.3094 18.3009 17.1777 18.1475 17.0754V17.3769C18.1463 17.5235 18.105 17.6672 18.0282 17.7922C17.9513 17.9171 17.8415 18.0182 17.711 18.0851L17.71 18.0861C17.5777 18.1532 17.4289 18.182 17.2811 18.1686C17.1335 18.1551 16.9929 18.0999 16.8749 18.0102L15.0909 16.6677C14.9922 16.5934 14.9121 16.4967 14.857 16.3861C14.8019 16.2754 14.7737 16.1533 14.7737 16.0296C14.7737 15.906 14.8019 15.7838 14.857 15.6731C14.9122 15.5625 14.993 15.4659 15.0918 15.3916L16.8749 14.0481C16.993 13.959 17.1338 13.905 17.2811 13.8916ZM19.1635 20.2496L19.3188 20.0942C19.3223 20.0904 19.3248 20.0857 19.3283 20.0818C19.2758 20.1395 19.2213 20.1964 19.1635 20.2496ZM17.2016 20.0875C17.1954 20.0897 17.1896 20.0926 17.1836 20.0951C17.2098 20.0843 17.2371 20.0761 17.265 20.0705L17.2016 20.0875ZM19.0329 18.8683C19.039 18.8507 19.0471 18.8339 19.0528 18.8161L19.0584 18.7962C19.051 18.8206 19.0413 18.8442 19.0329 18.8683ZM18.0434 15.676C18.204 15.719 18.3595 15.777 18.5083 15.8485L18.5092 15.8476C18.4349 15.8118 18.3586 15.7797 18.281 15.7509C18.1258 15.6932 17.9645 15.65 17.7991 15.6219L18.0434 15.676Z" fill="white"/>
<path fill-rule="evenodd" clip-rule="evenodd" d="M8.87824 12.9919C8.98253 12.9919 9.08587 13.0126 9.18219 13.0526C9.27879 13.0927 9.36689 13.1519 9.4407 13.2261C9.51451 13.3002 9.57318 13.3882 9.61304 13.4849C9.65289 13.5816 9.67275 13.6856 9.67269 13.7902V16.4771C9.67275 16.5817 9.65285 16.6857 9.61304 16.7824C9.57319 16.8791 9.51448 16.9671 9.4407 17.0413C9.36689 17.1154 9.27879 17.1746 9.18219 17.2148C9.08585 17.2547 8.98255 17.2754 8.87824 17.2754H3.52537C3.42106 17.2754 3.31776 17.2547 3.22141 17.2148C3.12482 17.1746 3.03672 17.1154 2.96291 17.0413C2.88912 16.9671 2.83042 16.8791 2.79057 16.7824C2.75075 16.6857 2.73085 16.5817 2.73091 16.4771V13.7902C2.73085 13.6856 2.75071 13.5816 2.79057 13.4849C2.83043 13.3882 2.8891 13.3002 2.96291 13.2261C3.03671 13.152 3.12483 13.0927 3.22141 13.0526C3.31774 13.0126 3.42108 12.9919 3.52537 12.9919H8.87824ZM4.32077 15.6798H8.08283V14.5876H4.32077V15.6798Z" fill="white"/>
<path fill-rule="evenodd" clip-rule="evenodd" d="M20.029 3.09039e-08C20.1333 2.61372e-06 20.2366 0.0207032 20.333 0.0606788C20.4296 0.100834 20.5177 0.160045 20.5915 0.234182C20.6653 0.308317 20.724 0.396284 20.7638 0.493015C20.8037 0.58973 20.8235 0.693698 20.8235 0.798305V12.7369C21.5651 13.2464 22.1886 13.9117 22.6463 14.69C23.1368 15.524 23.4247 16.4625 23.4871 17.429C23.5496 18.3956 23.3843 19.3637 23.0051 20.2544C22.626 21.145 22.0435 21.9337 21.3045 22.5564C20.5656 23.179 19.691 23.618 18.7516 23.8382C17.812 24.0584 16.8331 24.054 15.8958 23.824C14.9586 23.594 14.0887 23.145 13.3562 22.5147C12.6832 21.9356 12.1449 21.2173 11.7748 20.4108H1.2954C1.19087 20.4109 1.08702 20.3903 0.990498 20.3501C0.894168 20.31 0.806596 20.2515 0.732939 20.1776C0.659185 20.1035 0.60046 20.0154 0.560602 19.9188C0.520744 19.822 0.49994 19.7181 0.5 19.6135V0.798305C0.49994 0.693684 0.520744 0.589744 0.560602 0.493015C0.60046 0.396301 0.659139 0.308308 0.732939 0.234182C0.806685 0.160142 0.89402 0.10081 0.990498 0.0606788C1.08702 0.020554 1.19087 -2.91123e-05 1.2954 3.09039e-08H20.029ZM16.2707 23.5481C16.2795 23.5498 16.2885 23.5503 16.2973 23.5519C16.1908 23.5321 16.0845 23.5104 15.9791 23.4846L16.2707 23.5481ZM18.6721 23.4979L18.9609 23.422C18.9661 23.4205 18.9709 23.4178 18.9761 23.4163C18.8755 23.4458 18.7744 23.4739 18.6721 23.4979ZM13.8486 22.4654C13.9388 22.5342 14.0311 22.6002 14.1251 22.6635L13.8486 22.4654C13.7583 22.3965 13.6697 22.3244 13.5834 22.2501L13.8486 22.4654ZM19.0963 13.592C18.2638 13.2457 17.3477 13.1548 16.4639 13.3313C15.5802 13.5079 14.7681 13.9436 14.1307 14.5838C13.4933 15.224 13.0586 16.0401 12.8827 16.9284C12.7068 17.8167 12.7971 18.7379 13.1422 19.5746C13.4872 20.4112 14.0717 21.1262 14.821 21.6291C15.5703 22.132 16.4512 22.3999 17.3521 22.4C18.5601 22.3986 19.719 21.9167 20.5735 21.0584C21.3747 20.2537 21.8469 19.1798 21.9039 18.0481L21.9096 17.8215C21.9095 16.9159 21.6424 16.0306 21.1416 15.2778C20.6408 14.5249 19.9288 13.9385 19.0963 13.592ZM20.3661 21.7059C20.3976 21.6813 20.4299 21.6575 20.4608 21.632L20.4722 21.6216C20.4373 21.6504 20.4017 21.6781 20.3661 21.7059ZM2.0908 18.8161H11.29C11.1276 17.8415 11.2004 16.8398 11.5059 15.8959C11.8568 14.8123 12.5002 13.8478 13.3647 13.1095C14.2292 12.3711 15.2806 11.8876 16.4024 11.7138C17.3533 11.5666 18.3232 11.6469 19.2336 11.9442V1.59566H15.4716V7.51089L15.4659 7.61613C15.4538 7.72079 15.4208 7.82263 15.3683 7.91479C15.2996 8.03537 15.1997 8.13459 15.0795 8.20396L15.0805 8.20491L15.0757 8.2068L15.0739 8.2087L15.0729 8.20775C14.9551 8.27617 14.8219 8.31422 14.6856 8.31584C14.5469 8.31742 14.4107 8.28144 14.2898 8.21344L10.6613 6.19018L7.03461 8.21439C6.91353 8.2821 6.77656 8.31748 6.63785 8.31584C6.49923 8.31414 6.3633 8.27543 6.24394 8.20491C6.1246 8.13434 6.02559 8.03341 5.95703 7.91289C5.88856 7.79239 5.85276 7.65613 5.85287 7.51753V1.59566H2.0908V18.8161ZM22.2306 18.3373C22.2316 18.3278 22.2334 18.3184 22.2344 18.3089L22.2353 18.2937C22.2339 18.3083 22.2321 18.3228 22.2306 18.3373ZM13.0522 13.8983C13.0467 13.9044 13.0416 13.9111 13.0361 13.9172C13.1193 13.8243 13.2054 13.7337 13.2946 13.6461L13.0522 13.8983ZM7.44273 6.16079L10.2749 4.58125L10.3668 4.53763C10.4604 4.50005 10.5607 4.48075 10.6622 4.48075C10.7975 4.48077 10.9304 4.51529 11.0485 4.58125L13.8817 6.16079V1.59566H7.44273V6.16079Z" fill="white"/>
</svg>
